<svg xmlns="http://www.w3.org/2000/svg" version="1.1" xmlns:xlink="http://www.w3.org/1999/xlink" xmlns:svgjs="http://svgjs.dev/svgjs" width="1500" height="1500" viewBox="0 0 1500 1500"><rect width="1500" height="1500" fill="#000000"></rect><g transform="matrix(0.6666666666666666,0,0,0.6666666666666666,249.39393939393938,639.721880200509)"><svg viewBox="0 0 396 87" data-background-color="#680031" preserveAspectRatio="xMidYMid meet" height="329" width="1500" xmlns="http://www.w3.org/2000/svg" xmlns:xlink="http://www.w3.org/1999/xlink"><g id="tight-bounds" transform="matrix(1,0,0,1,0.2400000000000091,0.2425368809531392)"><svg viewBox="0 0 395.52 86.51492623809371" height="86.51492623809371" width="395.52"><g><svg viewBox="0 0 501.92127262538395 109.78883970093855" height="86.51492623809371" width="395.52"><g transform="matrix(1,0,0,1,0,15.173421405846064)"><svg viewBox="0 0 395.52 79.44199688924643" height="79.44199688924643" width="395.52"><g id="textblocktransform"><svg viewBox="0 0 395.52 79.44199688924643" height="79.44199688924643" width="395.52" id="textblock"><g><svg viewBox="0 0 395.52 79.44199688924643" height="79.44199688924643" width="395.52"><g transform="matrix(1,0,0,1,0,0)"><svg width="395.52" viewBox="2.15 -50.126612903225805 279.66 56.1766129032258" height="79.44199688924643" data-palette-color="#fe5e02"><path d="M60.7-10.7L60.7-10.7Q61.9-11.7 62.8-11.53 63.7-11.35 63.75-9.75L63.75-9.75Q63.75-8.65 62.93-7.53 62.1-6.4 60.73-5.45 59.35-4.5 57.7-3.63 56.05-2.75 54.35-2.1 52.65-1.45 51.28-1.03 49.9-0.6 48.95-0.4L48.95-0.4Q46.6 0.05 44.23 0.08 41.85 0.1 39.48-0.4 37.1-0.9 35.08-2.23 33.05-3.55 31.75-5.6L31.75-5.6Q29.5-9.1 29.98-13.48 30.45-17.85 33.8-25.2L33.8-25.2Q35.65-29.3 36.15-31.1L36.15-31.1Q36.5-32.55 38.2-35.65L38.2-35.65Q40.5-39.85 38.65-39.75L38.65-39.75Q37.35-39.65 34.75-37.3L34.75-37.3Q32.55-35.4 30.35-33.7L30.35-33.7Q28.85-32.65 24.68-26.88 20.5-21.1 19.45-18.8L19.45-18.8Q18.55-16.45 16.7-13.85L16.7-13.85Q13.6-9.25 10.45-3.55L10.45-3.55Q8.85-0.35 8.3-0.35L8.3-0.35Q7.95-0.35 6.45 0L6.45 0Q5.05 0.4 3.55-1.65L3.55-1.65 2.15-3.7 4-6.5Q5.25-8.3 7.75-12.85 10.25-17.4 11.45-19.05L11.45-19.05Q12.4-20.45 13.75-23L13.75-23Q15.1-25.5 16.2-28L16.2-28Q17.3-30.5 17.7-31.8L17.7-31.8Q18.15-33.5 19.55-36.1L19.55-36.1Q20.6-37.95 20.88-40.33 21.15-42.7 20.4-43.35L20.4-43.35Q20.2-43.65 18.82-43.13 17.45-42.6 15.8-41.8L15.8-41.8Q14.2-40.95 12.65-40L12.65-40Q11.1-39.1 10.55-38.45L10.55-38.45Q9.35-37.15 8.28-37.18 7.2-37.2 5.8-38.8L5.8-38.8Q4.3-40.5 4.3-40.65L4.3-40.65Q4.3-41.4 10.63-45.03 16.95-48.65 20.05-49.8L20.05-49.8Q21.5-50.25 23.75-50.08 26-49.9 27.1-49.15L27.1-49.15Q27.75-48.75 28.03-48.25 28.3-47.75 28.4-46.85L28.4-46.85Q28.5-45.95 28.5-44.2L28.5-44.2 28.5-40.4 32.4-43.35Q35-45.4 36.27-45.98 37.55-46.55 39.95-46.55L39.95-46.55Q42.75-46.6 43.35-46.28 43.95-45.95 44.5-44.2L44.5-44.2Q45.35-42.05 44.9-38.9L44.9-38.9Q44.25-35 42.75-29.93 41.25-24.85 39.95-22.45L39.95-22.45Q38.35-19.25 38.35-17.7L38.35-17.7Q38.35-16.2 37.45-15.55L37.45-15.55Q36.3-14.55 35.95-12.9 35.6-11.25 35.98-9.68 36.35-8.1 37.38-6.83 38.4-5.55 39.75-5.2L39.75-5.2Q42.35-4.75 45.75-4.98 49.15-5.2 52.3-5.85L52.3-5.85Q53.45-6.25 53.95-6.5L53.95-6.5Q58.25-8.75 60.7-10.7ZM89.27-9.6L89.27-9.6Q90.02-9.2 90.02-7.85L90.02-7.85Q90.07-6.3 88.27-4.95L88.27-4.95Q87.62-4.5 86.77-4.05L86.77-4.05Q86.62-4 86.42-3.85L86.42-3.85Q85.72-3.45 85.22-3.4L85.22-3.4Q83.72-3.3 82.32-4.6L82.32-4.6Q81.97-4.9 81.57-5.65L81.57-5.65 81.42-5.9Q80.97-6.65 80.57-6.85 80.17-7.05 79.57-6.75L79.57-6.75Q78.82-6.35 77.87-4.3L77.87-4.3Q77.42-3.25 77.12-2.85L77.12-2.85Q76.17-1.45 75.47-1.25L75.47-1.25Q74.57-0.8 73.02 0.15L73.02 0.15Q71.12 1.3 69.42 1.4L69.42 1.4Q67.47 1.55 66.52 1.8L66.52 1.8Q66.27 1.85 66.02 1.85L66.02 1.85Q65.47 1.85 65.07 1.65L65.07 1.65Q64.47 1.4 63.32 0.3L63.32 0.3Q62.07-0.85 61.62-1.73 61.17-2.6 60.72-4.8L60.72-4.8Q59.97-8.4 60.37-10.58 60.77-12.75 62.57-15.65L62.57-15.65Q64.87-19.35 66.92-21L66.92-21Q68.97-22.65 71.97-23.35L71.97-23.35Q73.42-23.65 74.52-24.4L74.52-24.4Q76.27-25.55 77.62-25.25L77.62-25.25Q78.92-25 80.62-23.2L80.62-23.2Q81.52-22.2 81.92-21.6 82.32-21 82.47-20.45 82.62-19.9 82.62-18.85L82.62-18.85Q82.62-14.4 82.92-11.95L82.92-11.95Q83.07-10.5 83.6-9.73 84.12-8.95 85.42-7.85L85.42-7.85 85.57-7.95Q86.47-8.55 86.87-8.9L86.87-8.9Q88.37-10.05 89.27-9.6ZM77.72-18.2L77.72-18.2Q77.72-20.15 77.32-20.35L77.32-20.35Q77.22-20.25 77.12-20.1L77.12-20.1Q76.87-19.65 77.17-18.05L77.17-18.05Q77.37-16.9 77.57-16.6L77.57-16.6Q77.72-17 77.72-18.2ZM76.27-10.5L76.27-10.5Q76.47-11.65 76.22-12.15L76.22-12.15Q76.02-12.65 74.97-13.7L74.97-13.7Q73.32-15.3 73.32-16.35L73.32-16.35Q73.32-17.05 72.87-18 72.42-18.95 71.97-19.25L71.97-19.25Q71.62-19.5 71.37-19.5L71.37-19.5Q71.17-19.5 71.02-19.4L71.02-19.4Q70.52-19.15 68.97-17.55L68.97-17.55Q67.62-16.2 66.45-14.1 65.27-12 64.72-10.15L64.72-10.15Q64.17-8.4 64.52-7.6L64.52-7.6Q64.92-6.85 64.97-5.05L64.97-5.05Q65.12-3.7 65.37-3.05L65.37-3.05Q65.62-2.5 66.12-2.3L66.12-2.3Q66.67-2.05 67.92-2.05L67.92-2.05Q68.52-2.05 68.92-2.1L68.92-2.1Q69.32-2.1 69.67-2.2L69.67-2.2Q70.02-2.3 70.32-2.45L70.32-2.45Q70.67-2.65 71.02-2.9L71.02-2.9Q71.37-3.15 71.87-3.55L71.87-3.55Q73.77-5.05 74.02-5.95L74.02-5.95Q74.32-6.9 75.22-7.95L75.22-7.95Q76.02-8.8 76.27-10.5ZM120.15-8.9L120.15-8.9Q118.35-9.2 117.1-9.75L117.1-9.75Q116.6-9.95 115.02-11.2 113.45-12.45 112.8-12.55L112.8-12.55Q112-12.6 111.32-12.3 110.65-12 110.15-11.48 109.65-10.95 109.12-10.2 108.6-9.45 108.25-8.75 107.9-8.05 107.47-7.25 107.05-6.45 106.7-5.95L106.7-5.95Q106.2-5.25 104.47-4.05 102.75-2.85 101.1-1.83 99.45-0.8 99.35-0.7L99.35-0.7Q98.7-0.2 96.77-0.03 94.85 0.15 92.9-0.28 90.95-0.7 90.4-1.65L90.4-1.65Q90.15-2.05 89.97-3.03 89.8-4 89.72-4.88 89.65-5.75 89.55-6.95 89.45-8.15 89.45-8.55L89.45-8.55Q89.15-11 89.9-12.45L89.9-12.45Q90.15-12.85 90.52-15.45 90.9-18.05 91.55-21.18 92.2-24.3 93.1-25.9L93.1-25.9Q95.15-29.35 98.45-25.6L98.45-25.6Q99.25-24.7 99.05-22.35L99.05-22.35Q98.9-20 97.85-17.7L97.85-17.7Q97.25-16.3 96.35-13.5L96.35-13.5Q95.4-10.75 95.1-10L95.1-10Q94.05-7.25 95.2-5.75L95.2-5.75Q95.45-5.4 96.15-5.55 96.85-5.7 97.67-6.13 98.5-6.55 99.17-7.03 99.85-7.5 100.15-7.85L100.15-7.85Q101.2-9 103.07-12.68 104.95-16.35 105.25-17.9L105.25-17.9Q105.65-19.55 106.87-21.08 108.1-22.6 109.6-23.5 111.1-24.4 112.7-24.1 114.3-23.8 115.3-22L115.3-22Q115.75-21.15 116.12-18.85 116.5-16.55 117.5-15.4L117.5-15.4Q118.45-14.3 119.52-13.85 120.59-13.4 122.17-13.18 123.75-12.95 124.65-12.65L124.65-12.65Q125.7-12.25 126.32-11.25 126.95-10.25 126.4-9.4L126.4-9.4Q125.7-8.25 123.2-8.5L123.2-8.5Q121.2-8.7 120.15-8.9ZM134.42-30.35L134.42-30.35Q133.02-30 131.67-31.35L131.67-31.35Q130.72-32.3 130.67-32.6 130.62-32.9 131.37-33.5L131.37-33.5Q132.42-34.25 134.04-34.25 135.67-34.25 136.27-33.5L136.27-33.5Q136.92-32.65 136.34-31.65 135.77-30.65 134.42-30.35ZM143.32-6.4L143.32-6.4Q143.67-5.8 143.34-5.25 143.02-4.7 141.52-3.45L141.52-3.45Q139.17-1.45 135.97 0.2L135.97 0.2Q133.57 1.4 130.99 1.18 128.42 0.95 126.14-0.3 123.87-1.55 122.22-3.55L122.22-3.55Q119.87-6.35 120.82-11L120.82-11Q120.92-11.35 121.22-13.4 121.52-15.45 121.84-17.03 122.17-18.6 122.57-19.1L122.57-19.1Q123.02-19.65 124.04-19.85 125.07-20.05 126.17-19.88 127.27-19.7 128.27-19.23 129.27-18.75 129.64-17.95 130.02-17.15 129.62-16.15L129.62-16.15Q128.47-13.75 128.47-12.8L128.47-12.8Q128.47-11.9 127.47-10.55L127.47-10.55Q126.62-9.55 126.44-8.13 126.27-6.7 126.92-6.25L126.92-6.25Q127.47-6.05 127.47-5L127.47-5Q127.47-4.1 128.77-2.95L128.77-2.95Q129.67-2.1 130.19-2 130.72-1.9 132.12-2.25L132.12-2.25Q134.17-3 137.37-5.3L137.37-5.3Q139.92-7.15 141.24-7.4 142.57-7.65 143.32-6.4ZM177.14-6.8L177.14-6.8Q177.04-6.05 176.19-5.05L176.19-5.05Q173.89-2.35 170.52-0.93 167.14 0.5 163.59 0.25L163.59 0.25Q162.79 0.2 162.29 0.05L162.29 0.05Q161.74-0.15 160.74-0.85L160.74-0.85Q158.64-2.3 151.34-7.4L151.34-7.4Q150.29-8.1 149.69-8L149.69-8Q148.94-7.9 148.29-6.9L148.29-6.9Q146.99-4.85 146.69-2.4L146.69-2.4Q146.59-1.5 146.44-1.15L146.44-1.15Q146.09-0.5 145.27-0.28 144.44-0.05 143.74-0.4L143.74-0.4Q142.49-0.9 141.69-2.65L141.69-2.65Q141.34-3.3 141.29-4.03 141.24-4.75 141.39-6.08 141.54-7.4 141.54-7.6L141.54-7.6Q141.59-8.2 141.87-9.33 142.14-10.45 142.19-11L142.19-11Q142.24-11.9 143.39-15.35 144.54-18.8 145.24-20.25L145.24-20.25Q147.09-24.1 147.69-27.7L147.69-27.7Q148.09-30.4 153.49-41.85L153.49-41.85Q154.09-43.15 154.94-43.98 155.79-44.8 157.14-45.6L157.14-45.6Q159.59-47 160.99-46.5L160.99-46.5Q161.79-46.2 162.27-45.43 162.74-44.65 162.82-43.75 162.89-42.85 162.79-41.95L162.79-41.95Q162.44-39.25 160.29-34.3L160.29-34.3Q156.89-26.65 155.79-24.2L155.79-24.2Q156.39-24.1 157.07-24.08 157.74-24.05 158.64-24.13 159.54-24.2 159.94-24.2L159.94-24.2Q162.54-24.25 163.74-22.95L163.74-22.95Q165.54-20.95 163.59-17.05L163.59-17.05Q161.19-12.35 156.94-8.65L156.94-8.65Q157.49-8.25 158.14-7.8 158.79-7.35 159.49-6.85 160.19-6.35 160.64-6L160.64-6Q162.99-4.35 164.34-4.05L164.34-4.05Q166.89-3.45 170.04-5.05L170.04-5.05Q170.94-5.55 172.59-6.6 174.24-7.65 175.09-8.1L175.09-8.1Q175.64-8.4 175.94-8.4L175.94-8.4Q176.49-8.4 176.82-7.93 177.14-7.45 177.14-6.9L177.14-6.9Q177.14-6.9 177.14-6.88L177.14-6.88Q177.14-6.85 177.14-6.8ZM154.69-13.9L154.69-13.9Q156.09-15.15 155.79-16.05L155.79-16.05Q155.39-17 154.59-16.85 153.79-16.7 152.84-15.55L152.84-15.55Q151.39-13.65 152.14-13.03 152.89-12.4 154.69-13.9ZM195.71-43.35L195.71-43.35Q197.01-39.3 196.26-34.9L196.26-34.9Q195.86-32.55 194.91-30.2L194.91-30.2Q194.81-29.95 194.21-28.78 193.61-27.6 193.19-26.58 192.76-25.55 192.39-24.33 192.01-23.1 192.16-22.18 192.31-21.25 193.01-20.85L193.01-20.85Q193.41-20.7 194.06-20.7L194.06-20.7Q194.86-20.7 196.59-19 198.31-17.3 199.06-15.85L199.06-15.85Q199.76-14.5 200.51-14.6 201.26-14.7 201.66-16.2L201.66-16.2Q201.96-17.85 202.76-18.5L202.76-18.5Q203.46-19.05 203.86-20.85L203.86-20.85Q204.21-22.35 206.71-27.75L206.71-27.75Q209.16-32.9 209.16-33.5L209.16-33.5Q209.16-34.05 210.86-37.25L210.86-37.25Q212.41-39.95 212.56-41.1L212.56-41.1Q212.56-42.05 213.51-43.8L213.51-43.8Q215.06-46.25 218.46-44.9L218.46-44.9Q218.96-44.75 219.09-44.15 219.21-43.55 218.99-42.68 218.76-41.8 218.41-40.8 218.06-39.8 217.54-38.75 217.01-37.7 216.59-36.88 216.16-36.05 215.76-35.33 215.36-34.6 215.31-34.45L215.31-34.45Q214.56-32.95 214.31-32.1L214.31-32.1Q214.26-31.85 214.11-31.13 213.96-30.4 213.81-30L213.81-30Q213.66-29.55 213.36-29.03 213.06-28.5 212.69-27.95 212.31-27.4 212.11-27L212.11-27Q211.46-25.75 210.44-23.2 209.41-20.65 208.86-19.6L208.86-19.6Q208.71-19.3 208.34-18.63 207.96-17.95 207.71-17.43 207.46-16.9 207.19-16.25 206.91-15.6 206.76-15 206.61-14.4 206.66-13.9L206.66-13.9Q206.71-12.8 209.16-12.95L209.16-12.95Q209.66-12.95 210.26-13L210.26-13Q213.61-13.4 216.61-15.3L216.61-15.3Q219.71-17.3 219.96-17.85L219.96-17.85Q220.36-18.5 222.26-18.5L222.26-18.5Q223.81-18.5 224.66-17.5 225.51-16.5 225.01-15.1L225.01-15.1Q224.71-14.05 222.69-12.58 220.66-11.1 217.96-9.95 215.26-8.8 213.31-8.6L213.31-8.6Q210.61-8.25 209.91-7.7L209.91-7.7Q208.86-7 204.11-8.2L204.11-8.2Q203.31-8.45 202.41-6.7 201.51-4.95 201.11-2.65L201.11-2.65Q200.61-0.6 200.14-0.28 199.66 0.05 199.66 1.55L199.66 1.55Q199.66 2.4 199.16 3.48 198.66 4.55 197.91 5.3 197.16 6.05 196.61 6.05L196.61 6.05Q195.81 6.05 194.86 4.7L194.86 4.7Q194.31 3.75 194.16 2.6L194.16 2.6Q194.06 1.45 194.31-1.3L194.31-1.3Q194.61-6 194.06-6.75L194.06-6.75Q193.91-7.1 193.24-7.33 192.56-7.55 191.51-7.7L191.51-7.7Q190.46-7.8 189.76-7.85L189.76-7.85Q189.01-7.85 187.76-7.9L187.76-7.9Q186.51-7.95 186.36-7.95L186.36-7.95Q185.01-8.1 184.51-7.7 184.01-7.3 182.96-5.35L182.96-5.35Q181.46-2.55 180.76-0.05L180.76-0.05Q179.71 3.3 178.66 4.67 177.61 6.05 176.01 6.05L176.01 6.05Q174.26 6.05 173.71 5.33 173.16 4.6 173.66 2.95L173.66 2.95Q175.16-2.35 176.26-4.8L176.26-4.8Q176.51-5.3 177.89-7.68 179.26-10.05 179.61-11.5L179.61-11.5Q179.91-12.7 179.91-14.85L179.91-14.85 179.91-18.65 182.51-20.7Q185.01-22.5 186.61-25.7L186.61-25.7Q188.26-29.3 189.16-30.9L189.16-30.9Q190.01-32.8 190.49-36.68 190.96-40.55 190.36-40.95L190.36-40.95Q189.86-41.3 188.06-37.9L188.06-37.9Q187.81-37.35 187.51-36.75L187.51-36.75Q186.16-34.05 185.26-32.65L185.26-32.65Q184.41-31.2 183.61-30.35 182.81-29.5 181.71-28.75L181.71-28.75Q180.46-28 178.76-28.18 177.06-28.35 176.16-29.4L176.16-29.4Q175.36-30.35 175.56-33.75 175.76-37.15 176.71-38.65L176.71-38.65Q178.16-40.9 180.41-42.83 182.66-44.75 184.66-45.4L184.66-45.4Q187.01-46.2 189.91-46.23 192.81-46.25 194.06-45.65L194.06-45.65Q195.16-45.1 195.71-43.35ZM179.54-34.98Q180.21-34.3 181.16-34.95 182.11-35.6 182.56-37.1L182.56-37.1Q183.46-39.3 182.36-39.2L182.36-39.2Q181.56-39.05 180.46-37.7L180.46-37.7Q178.86-35.65 179.54-34.98ZM192.21-12.85L192.21-12.85Q192.86-13.1 192.86-13.55L192.86-13.55Q192.61-14.2 190.91-14.93 189.21-15.65 188.81-15.25L188.81-15.25Q188.51-14.85 189.46-13.9L189.46-13.9Q190.51-12.7 192.21-12.85ZM230.04-30.35L230.04-30.35Q228.64-30 227.29-31.35L227.29-31.35Q226.34-32.3 226.29-32.6 226.24-32.9 226.99-33.5L226.99-33.5Q228.04-34.25 229.66-34.25 231.29-34.25 231.89-33.5L231.89-33.5Q232.54-32.65 231.96-31.65 231.39-30.65 230.04-30.35ZM238.94-6.4L238.94-6.4Q239.29-5.8 238.96-5.25 238.64-4.7 237.14-3.45L237.14-3.45Q234.79-1.45 231.59 0.2L231.59 0.2Q229.19 1.4 226.61 1.18 224.04 0.95 221.76-0.3 219.49-1.55 217.84-3.55L217.84-3.55Q215.49-6.35 216.44-11L216.44-11Q216.54-11.35 216.84-13.4 217.14-15.45 217.46-17.03 217.79-18.6 218.19-19.1L218.19-19.1Q218.64-19.65 219.66-19.85 220.69-20.05 221.79-19.88 222.89-19.7 223.89-19.23 224.89-18.75 225.26-17.95 225.64-17.15 225.24-16.15L225.24-16.15Q224.09-13.75 224.09-12.8L224.09-12.8Q224.09-11.9 223.09-10.55L223.09-10.55Q222.24-9.55 222.06-8.13 221.89-6.7 222.54-6.25L222.54-6.25Q223.09-6.05 223.09-5L223.09-5Q223.09-4.1 224.39-2.95L224.39-2.95Q225.29-2.1 225.81-2 226.34-1.9 227.74-2.25L227.74-2.25Q229.79-3 232.99-5.3L232.99-5.3Q235.54-7.15 236.86-7.4 238.19-7.65 238.94-6.4ZM279.01-7.6L279.01-7.6Q280.11-8.5 280.93-8.33 281.76-8.15 281.81-6.75L281.81-6.75Q281.81-6.3 281.61-5.85 281.41-5.4 281.16-5.08 280.91-4.75 280.41-4.35 279.91-3.95 279.63-3.75 279.36-3.55 278.78-3.18 278.21-2.8 278.06-2.7L278.06-2.7Q276.51-1.65 275.06-0.45L275.06-0.45Q273.11 1.1 271.01 1.7L271.01 1.7Q268.56 2.4 267.21 2.45L267.21 2.45Q265.81 2.5 263.76 1.9L263.76 1.9Q261.81 1.4 260.63 0.58 259.46-0.25 258.81-1.55 258.16-2.85 258.13-4.83 258.11-6.8 258.61-9.3L258.61-9.3Q259.06-11.85 260.11-15.45L260.11-15.45Q260.41-16.35 259.91-16.35L259.91-16.35Q258.56-16.35 254.66-11.55 250.76-6.75 248.61-2.55L248.61-2.55Q247.11 0.35 246.11 0.95 245.11 1.55 243.86 0.35L243.86 0.35Q242.81-0.6 242.86-1.48 242.91-2.35 244.16-5.2L244.16-5.2Q245.21-7.3 245.21-8.1L245.21-8.1Q245.21-8.8 246.26-11L246.26-11Q246.96-13.5 246.71-13.65L246.71-13.65Q246.16-13.65 244.53-11.88 242.91-10.1 241.13-7.63 239.36-5.15 238.46-3.45L238.46-3.45Q237.06-0.85 235.91-0.15 234.76 0.55 233.61-0.45L233.61-0.45Q232.51-1.45 232.76-2.93 233.01-4.4 234.76-7.75L234.76-7.75Q235.26-8.8 235.73-10.83 236.21-12.85 236.66-13.7L236.66-13.7Q238.31-17.25 240.26-18.75L240.26-18.75Q240.71-19.1 241.21-19.38 241.71-19.65 242.23-19.73 242.76-19.8 242.93-19.4 243.11-19 242.91-18.05L242.91-18.05Q242.46-16.5 243.26-16.65L243.26-16.65Q243.86-16.7 244.66-18L244.66-18Q245.81-19.75 247.36-20.85L247.36-20.85Q247.96-21.25 248.36-21.45L248.36-21.45Q248.86-21.65 249.01-21.7L249.01-21.7Q249.26-21.85 249.71-21.8 250.16-21.75 250.36-21.7L250.36-21.7Q250.56-21.7 251.16-21.5L251.16-21.5Q251.81-21.3 252.16-21.25L252.16-21.25Q253.56-20.95 253.56-20.45L253.56-20.45Q253.66-20.35 253.71-18.95L253.71-18.95Q253.81-18.3 253.96-18 254.11-17.7 254.56-17.73 255.01-17.75 255.66-18.07 256.31-18.4 257.61-19.25L257.61-19.25Q260.61-21.15 262.76-21.45L262.76-21.45Q264.36-21.6 264.76-21.38 265.16-21.15 265.61-20.2L265.61-20.2Q266.21-18.65 265.86-16.25 265.51-13.85 264.56-11.75L264.56-11.75Q263.46-9.65 263.46-8.55L263.46-8.55Q263.46-7.65 262.91-5.9L262.91-5.9Q262.36-4.4 263.08-3.1 263.81-1.8 265.36-1.5L265.36-1.5Q266.26-1.35 267.71-1.65L267.71-1.65Q268.11-1.75 272.56-3.65L272.56-3.65Q272.56-3.65 273.48-4.2L273.48-4.2Q274.41-4.75 275.48-5.38 276.56-6 277.61-6.65 278.66-7.3 279.01-7.6Z" opacity="1" transform="matrix(1,0,0,1,0,0)" fill="#ffffff" class="wordmark-text-0" data-fill-palette-color="primary" id="text-0"></path></svg></g></svg></g></svg></g></svg></g><g transform="matrix(1,0,0,1,414.27434885762574,0)"><svg viewBox="0 0 87.6469237677582 109.78883970093855" height="109.78883970093855" width="87.6469237677582"><g><svg xmlns="http://www.w3.org/2000/svg" xmlns:xlink="http://www.w3.org/1999/xlink" version="1.1" x="0" y="0" viewBox="-333.37054790948036 256.046 79.79554790948038 99.95400000000001" enable-background="new -346 256 100 100" xml:space="preserve" height="109.78883970093855" width="87.6469237677582" class="icon-icon-0" data-fill-palette-color="accent" id="icon-0"><g fill="#fe5e02" data-fill-palette-color="accent"><path d="M-282.471 275.444C-287.817 275.444-292.167 271.094-292.167 265.745S-287.816 256.046-282.471 256.046-272.775 260.396-272.775 265.745-277.125 275.444-282.471 275.444M-282.471 259.803C-285.749 259.803-288.415 262.467-288.415 265.745S-285.749 271.686-282.471 271.686-276.527 269.022-276.527 265.745-279.193 259.803-282.471 259.803" fill="#ffffff" data-fill-palette-color="accent"></path><path d="M-276.215 289.362A6.42 6.42 0 0 1-282.627 282.95 6.42 6.42 0 0 1-276.215 276.538 6.42 6.42 0 0 1-269.802 282.95 6.42 6.42 0 0 1-276.215 289.362M-276.215 279.978A2.976 2.976 0 0 0-279.187 282.951 2.976 2.976 0 0 0-276.215 285.923 2.976 2.976 0 0 0-273.242 282.951 2.976 2.976 0 0 0-276.215 279.978" fill="#ffffff" data-fill-palette-color="accent"></path><path d="M-260.965 277.436C-265.04 277.436-268.355 274.122-268.355 270.046S-265.041 262.656-260.965 262.656-253.575 265.97-253.575 270.046-256.89 277.436-260.965 277.436M-260.965 266.096C-263.143 266.096-264.914 267.868-264.914 270.046S-263.143 273.996-260.965 273.996-257.015 272.225-257.015 270.046-258.786 266.096-260.965 266.096" fill="#ffffff" data-fill-palette-color="accent"></path><path d="M-263.051 294.791A5.2 5.2 0 0 1-268.244 289.598C-268.244 286.735-265.913 284.405-263.051 284.405S-257.858 286.736-257.858 289.598A5.2 5.2 0 0 1-263.051 294.791M-263.051 287.532A2.066 2.066 0 0 0-263.051 291.662 2.066 2.066 0 0 0-263.051 287.532" fill="#ffffff" data-fill-palette-color="accent"></path><rect x="-319.254" y="264.74" width="20.51" height="12.641" fill="#ffffff" data-fill-palette-color="accent"></rect><path d="M-272.173 310.41C-276.453 297.897-290.077 289.79-294.312 287.523V281.193H-323.058L-323.654 282.437C-324.036 283.228-332.984 302.006-333.355 316.898-333.726 331.671-327.337 353.507-327.065 354.43L-326.603 356H-277.404L-276.91 354.491C-276.511 353.288-267.245 324.805-272.173 310.41M-281.481 324.404C-281.625 326.121-283.215 327.425-285.1 327.425-285.189 327.425-285.281 327.425-285.37 327.419-287.371 327.284-288.874 325.714-288.727 323.918-288.717 323.851-289.725 319.813-292.129 315.218-294.83 310.046-297.604 307.739-297.655 307.709-299.363 306.774-299.913 304.764-298.874 303.224-297.845 301.684-295.624 301.183-293.907 302.106-293.62 302.265-286.838 304.892-283.166 311.912-279.938 318.087-281.453 324.065-281.481 324.404" fill="#ffffff" data-fill-palette-color="accent"></path></g></svg></g></svg></g></svg></g><defs></defs></svg><rect width="395.52" height="86.51492623809371" fill="none" stroke="none" visibility="hidden"></rect></g></svg></g></svg>